<svg width="100.000000" height="100.000000" viewBox="0 0 100 100" fill="none" xmlns="http://www.w3.org/2000/svg" xmlns:xlink="http://www.w3.org/1999/xlink">
	<desc>
			Created with Pixso.
	</desc>
	<defs>
		<clipPath id="clip10112_21">
			<rect id="icon-3" rx="-0.500000" width="99.000000" height="99.000000" transform="translate(0.500000 0.500000)" fill="white" fill-opacity="0"/>
		</clipPath>
		<linearGradient x1="9.694407" y1="9.375000" x2="12.171962" y2="12.500000" id="paint_linear_10112_22_0" gradientUnits="userSpaceOnUse">
			<stop stop-color="#C89AFC"/>
			<stop offset="1.000000" stop-color="#7C6AFA"/>
		</linearGradient>
		<linearGradient x1="9.694407" y1="15.625000" x2="12.171962" y2="18.750000" id="paint_linear_10112_23_0" gradientUnits="userSpaceOnUse">
			<stop stop-color="#C89AFC"/>
			<stop offset="1.000000" stop-color="#7C6AFA"/>
		</linearGradient>
		<linearGradient x1="87.819405" y1="81.250000" x2="90.296959" y2="84.375000" id="paint_linear_10112_24_0" gradientUnits="userSpaceOnUse">
			<stop stop-color="#C89AFC"/>
			<stop offset="1.000000" stop-color="#7C6AFA"/>
		</linearGradient>
		<linearGradient x1="87.819405" y1="87.500000" x2="90.296959" y2="90.625000" id="paint_linear_10112_25_0" gradientUnits="userSpaceOnUse">
			<stop stop-color="#C89AFC"/>
			<stop offset="1.000000" stop-color="#7C6AFA"/>
		</linearGradient>
		<linearGradient x1="10.220993" y1="0.000008" x2="89.502762" y2="100.000023" id="paint_linear_10112_26_0" gradientUnits="userSpaceOnUse">
			<stop stop-color="#C89AFC"/>
			<stop offset="1.000000" stop-color="#7C6AFA"/>
		</linearGradient>
	</defs>
	<rect id="icon-3" rx="-0.500000" width="99.000000" height="99.000000" transform="translate(0.500000 0.500000)" fill="#FFFFFF" fill-opacity="0"/>
	<g clip-path="url(#clip10112_21)">
		<path id="Vector" d="M9.37 9.37L12.5 9.37L12.5 12.5L9.37 12.5L9.37 9.37Z" fill="url(#paint_linear_10112_22_0)" fill-opacity="1.000000" fill-rule="nonzero"/>
		<path id="Vector" d="M9.37 15.62L12.5 15.62L12.5 18.75L9.37 18.75L9.37 15.62Z" fill="url(#paint_linear_10112_23_0)" fill-opacity="1.000000" fill-rule="nonzero"/>
		<path id="Vector" d="M87.5 81.25L90.62 81.25L90.62 84.37L87.5 84.37L87.5 81.25Z" fill="url(#paint_linear_10112_24_0)" fill-opacity="1.000000" fill-rule="nonzero"/>
		<path id="Vector" d="M87.5 87.5L90.62 87.5L90.62 90.62L87.5 90.62L87.5 87.5Z" fill="url(#paint_linear_10112_25_0)" fill-opacity="1.000000" fill-rule="nonzero"/>
		<path id="Vector" d="M84.37 71.87L60.93 71.87C58.34 71.87 56.25 73.97 56.25 76.56L56.25 81.25L46.87 81.25L46.87 84.37L19.53 84.37C10.47 84.37 3.12 77.02 3.12 67.96C3.12 58.9 10.47 51.56 19.53 51.56L80.46 51.56C91.25 51.56 100 42.81 100 32.03C100 21.24 91.25 12.5 80.46 12.5L53.12 12.5L53.12 9.37L43.75 9.37L43.75 4.68C43.75 2.09 41.65 0 39.06 0L15.62 0L15.62 3.12L0 3.12L0 25L15.62 25L15.62 28.12L39.06 28.12C41.65 28.12 43.75 26.02 43.75 23.43L43.75 18.75L53.12 18.75L53.12 15.62L80.46 15.62C89.52 15.62 96.87 22.97 96.87 32.03C96.87 41.09 89.52 48.43 80.46 48.43L19.53 48.43C8.74 48.43 0 57.18 0 67.96C0 78.75 8.74 87.5 19.53 87.5L46.87 87.5L46.87 90.62L56.25 90.62L56.25 95.31C56.25 97.9 58.34 100 60.93 100L84.37 100L84.37 96.87L100 96.87L100 75L84.37 75L84.37 71.87ZM15.62 21.87L3.12 21.87L3.12 6.25L15.62 6.25L15.62 21.87ZM40.62 9.37L40.62 23.43C40.62 24.3 39.92 25 39.06 25L18.75 25L18.75 3.12L39.06 3.12C39.92 3.12 40.62 3.82 40.62 4.68L40.62 9.37ZM50 15.62L43.75 15.62L43.75 12.5L50 12.5L50 15.62ZM56.25 87.5L50 87.5L50 84.37L56.25 84.37L56.25 87.5ZM81.25 96.87L60.93 96.87C60.07 96.87 59.37 96.17 59.37 95.31L59.37 76.56C59.37 75.69 60.07 75 60.93 75L81.25 75L81.25 96.87ZM96.87 78.12L96.87 93.75L84.37 93.75L84.37 78.12L96.87 78.12Z" fill="url(#paint_linear_10112_26_0)" fill-opacity="1.000000" fill-rule="nonzero"/>
	</g>
</svg>
