<svg width="100.000000" height="100.000000" viewBox="0 0 100 100" fill="none" xmlns="http://www.w3.org/2000/svg" xmlns:xlink="http://www.w3.org/1999/xlink">
	<desc>
			Created with Pixso.
	</desc>
	<defs>
		<clipPath id="clip10112_2">
			<rect id="icon-1" rx="-0.500000" width="99.000000" height="99.000000" transform="translate(0.500000 0.500000)" fill="white" fill-opacity="0"/>
		</clipPath>
		<linearGradient x1="7.048514" y1="12.500000" x2="13.242403" y2="20.312500" id="paint_linear_10112_3_0" gradientUnits="userSpaceOnUse">
			<stop stop-color="#C89AFC"/>
			<stop offset="1.000000" stop-color="#7C6AFA"/>
		</linearGradient>
		<linearGradient x1="12.318714" y1="78.125061" x2="59.392265" y2="81.250061" id="paint_linear_10112_4_0" gradientUnits="userSpaceOnUse">
			<stop stop-color="#C89AFC"/>
			<stop offset="1.000000" stop-color="#7C6AFA"/>
		</linearGradient>
		<linearGradient x1="12.318714" y1="84.375061" x2="59.392265" y2="87.500061" id="paint_linear_10112_5_0" gradientUnits="userSpaceOnUse">
			<stop stop-color="#C89AFC"/>
			<stop offset="1.000000" stop-color="#7C6AFA"/>
		</linearGradient>
		<linearGradient x1="82.527626" y1="12.499996" x2="92.437843" y2="15.624996" id="paint_linear_10112_6_0" gradientUnits="userSpaceOnUse">
			<stop stop-color="#C89AFC"/>
			<stop offset="1.000000" stop-color="#7C6AFA"/>
		</linearGradient>
		<linearGradient x1="82.527626" y1="18.749996" x2="92.437843" y2="21.874996" id="paint_linear_10112_7_0" gradientUnits="userSpaceOnUse">
			<stop stop-color="#C89AFC"/>
			<stop offset="1.000000" stop-color="#7C6AFA"/>
		</linearGradient>
		<linearGradient x1="82.527626" y1="25.000000" x2="92.437843" y2="28.125000" id="paint_linear_10112_8_0" gradientUnits="userSpaceOnUse">
			<stop stop-color="#C89AFC"/>
			<stop offset="1.000000" stop-color="#7C6AFA"/>
		</linearGradient>
		<linearGradient x1="58.611015" y1="26.562500" x2="64.804901" y2="34.375000" id="paint_linear_10112_9_0" gradientUnits="userSpaceOnUse">
			<stop stop-color="#C89AFC"/>
			<stop offset="1.000000" stop-color="#7C6AFA"/>
		</linearGradient>
		<linearGradient x1="77.555252" y1="6.250005" x2="97.375687" y2="65.625015" id="paint_linear_10112_10_0" gradientUnits="userSpaceOnUse">
			<stop stop-color="#C89AFC"/>
			<stop offset="1.000000" stop-color="#7C6AFA"/>
		</linearGradient>
		<linearGradient x1="7.346336" y1="71.875000" x2="64.330109" y2="93.750000" id="paint_linear_10112_11_0" gradientUnits="userSpaceOnUse">
			<stop stop-color="#C89AFC"/>
			<stop offset="1.000000" stop-color="#7C6AFA"/>
		</linearGradient>
		<linearGradient x1="79.722031" y1="71.875008" x2="92.109802" y2="93.750008" id="paint_linear_10112_12_0" gradientUnits="userSpaceOnUse">
			<stop stop-color="#C89AFC"/>
			<stop offset="1.000000" stop-color="#7C6AFA"/>
		</linearGradient>
		<linearGradient x1="7.346336" y1="6.250015" x2="64.330109" y2="65.625023" id="paint_linear_10112_13_0" gradientUnits="userSpaceOnUse">
			<stop stop-color="#C89AFC"/>
			<stop offset="1.000000" stop-color="#7C6AFA"/>
		</linearGradient>
		<linearGradient x1="82.526794" y1="43.750000" x2="92.438141" y2="59.398655" id="paint_linear_10112_14_0" gradientUnits="userSpaceOnUse">
			<stop stop-color="#C89AFC"/>
			<stop offset="1.000000" stop-color="#7C6AFA"/>
		</linearGradient>
		<linearGradient x1="33.131905" y1="43.750000" x2="35.609459" y2="46.875000" id="paint_linear_10112_15_0" gradientUnits="userSpaceOnUse">
			<stop stop-color="#C89AFC"/>
			<stop offset="1.000000" stop-color="#7C6AFA"/>
		</linearGradient>
	</defs>
	<rect id="icon-1" rx="-0.500000" width="99.000000" height="99.000000" transform="translate(0.500000 0.500000)" fill="#FFFFFF" fill-opacity="0"/>
	<g clip-path="url(#clip10112_2)">
		<path id="Vector" d="M9.37 20.31L6.25 20.31L6.25 12.5L14.06 12.5L14.06 15.62L9.37 15.62L9.37 20.31Z" fill="url(#paint_linear_10112_3_0)" fill-opacity="1.000000" fill-rule="nonzero"/>
		<path id="Vector" d="M65.62 81.25L62.5 81.25L62.5 78.12L65.62 78.12L65.62 81.25ZM59.37 81.25L56.25 81.25L56.25 78.12L59.37 78.12L59.37 81.25ZM53.12 81.25L50 81.25L50 78.12L53.12 78.12L53.12 81.25ZM46.87 81.25L43.75 81.25L43.75 78.12L46.87 78.12L46.87 81.25ZM40.62 81.25L37.5 81.25L37.5 78.12L40.62 78.12L40.62 81.25ZM34.37 81.25L31.25 81.25L31.25 78.12L34.37 78.12L34.37 81.25ZM28.12 81.25L25 81.25L25 78.12L28.12 78.12L28.12 81.25ZM21.87 81.25L18.75 81.25L18.75 78.12L21.87 78.12L21.87 81.25ZM15.62 81.25L12.5 81.25L12.5 78.12L15.62 78.12L15.62 81.25ZM9.37 81.25L6.25 81.25L6.25 78.12L9.37 78.12L9.37 81.25Z" fill="url(#paint_linear_10112_4_0)" fill-opacity="1.000000" fill-rule="nonzero"/>
		<path id="Vector" d="M65.62 87.5L62.5 87.5L62.5 84.37L65.62 84.37L65.62 87.5ZM59.37 87.5L56.25 87.5L56.25 84.37L59.37 84.37L59.37 87.5ZM53.12 87.5L50 87.5L50 84.37L53.12 84.37L53.12 87.5ZM46.87 87.5L43.75 87.5L43.75 84.37L46.87 84.37L46.87 87.5ZM40.62 87.5L37.5 87.5L37.5 84.37L40.62 84.37L40.62 87.5ZM34.37 87.5L31.25 87.5L31.25 84.37L34.37 84.37L34.37 87.5ZM28.12 87.5L25 87.5L25 84.37L28.12 84.37L28.12 87.5ZM21.87 87.5L18.75 87.5L18.75 84.37L21.87 84.37L21.87 87.5ZM15.62 87.5L12.5 87.5L12.5 84.37L15.62 84.37L15.62 87.5ZM9.37 87.5L6.25 87.5L6.25 84.37L9.37 84.37L9.37 87.5Z" fill="url(#paint_linear_10112_5_0)" fill-opacity="1.000000" fill-rule="nonzero"/>
		<path id="Vector" d="M81.25 12.5L93.75 12.5L93.75 15.62L81.25 15.62L81.25 12.5Z" fill="url(#paint_linear_10112_6_0)" fill-opacity="1.000000" fill-rule="nonzero"/>
		<path id="Vector" d="M81.25 18.75L93.75 18.75L93.75 21.87L81.25 21.87L81.25 18.75Z" fill="url(#paint_linear_10112_7_0)" fill-opacity="1.000000" fill-rule="nonzero"/>
		<path id="Vector" d="M81.25 25L93.75 25L93.75 28.12L81.25 28.12L81.25 25Z" fill="url(#paint_linear_10112_8_0)" fill-opacity="1.000000" fill-rule="nonzero"/>
		<path id="Vector" d="M65.62 34.37L57.81 34.37L57.81 31.25L62.5 31.25L62.5 26.56L65.62 26.56L65.62 34.37Z" fill="url(#paint_linear_10112_9_0)" fill-opacity="1.000000" fill-rule="nonzero"/>
		<path id="Vector" d="M95.31 6.25L79.68 6.25C77.09 6.25 75 8.34 75 10.93L75 65.62L100 65.62L100 10.93C100 8.34 97.9 6.25 95.31 6.25ZM96.87 62.5L78.12 62.5L78.12 10.93C78.12 10.07 78.82 9.37 79.68 9.37L95.31 9.37C96.17 9.37 96.87 10.07 96.87 10.93L96.87 62.5Z" fill="url(#paint_linear_10112_10_0)" fill-opacity="1.000000" fill-rule="nonzero"/>
		<path id="Vector" d="M67.18 71.87L4.68 71.87C2.09 71.87 0 73.97 0 76.56L0 89.06C0 91.65 2.09 93.75 4.68 93.75L67.18 93.75C69.77 93.75 71.87 91.65 71.87 89.06L71.87 76.56C71.87 73.97 69.77 71.87 67.18 71.87ZM68.75 89.06C68.75 89.92 68.05 90.62 67.18 90.62L4.68 90.62C3.82 90.62 3.12 89.92 3.12 89.06L3.12 76.56C3.12 75.69 3.82 75 4.68 75L67.18 75C68.05 75 68.75 75.69 68.75 76.56L68.75 89.06Z" fill="url(#paint_linear_10112_11_0)" fill-opacity="1.000000" fill-rule="nonzero"/>
		<path id="Vector" d="M85.93 71.87C81.62 71.88 78.13 75.37 78.12 79.68L78.12 85.93C78.12 90.25 81.62 93.75 85.93 93.75C90.25 93.75 93.75 90.25 93.75 85.93L93.75 79.68C93.74 75.37 90.25 71.88 85.93 71.87ZM90.62 85.93C90.62 88.52 88.52 90.62 85.93 90.62C83.34 90.62 81.25 88.52 81.25 85.93L81.25 79.68C81.25 77.7 82.5 75.94 84.37 75.28L84.37 81.25L87.5 81.25L87.5 75.28C89.36 75.94 90.61 77.7 90.62 79.68L90.62 85.93Z" fill="url(#paint_linear_10112_12_0)" fill-opacity="1.000000" fill-rule="nonzero"/>
		<path id="Vector" d="M67.18 6.25L4.68 6.25C2.09 6.25 0 8.34 0 10.93L0 48.43C0 51.02 2.09 53.12 4.68 53.12L26.56 53.12L26.56 59.63C26.56 61.21 25.27 62.49 23.69 62.5L18.75 62.5L18.75 65.62L50 65.62L50 62.5L45.05 62.5C43.47 62.49 42.18 61.21 42.18 59.63L42.18 53.12L67.18 53.12C69.77 53.12 71.87 51.02 71.87 48.43L71.87 10.93C71.87 8.34 69.77 6.25 67.18 6.25ZM28.95 62.5C29.43 61.62 29.68 60.63 29.68 59.63L29.68 53.12L32.81 53.12L32.81 59.76L35.93 59.76L35.93 53.12L39.06 53.12L39.06 59.63C39.06 60.63 39.31 61.62 39.79 62.5L28.95 62.5ZM68.75 48.43C68.75 49.3 68.05 50 67.18 50L4.68 50C3.82 50 3.12 49.3 3.12 48.43L3.12 40.62L68.75 40.62L68.75 48.43ZM68.75 37.5L3.12 37.5L3.12 10.93C3.12 10.07 3.82 9.37 4.68 9.37L67.18 9.37C68.05 9.37 68.75 10.07 68.75 10.93L68.75 37.5Z" fill="url(#paint_linear_10112_13_0)" fill-opacity="1.000000" fill-rule="nonzero"/>
		<path id="Vector" d="M89.06 47.09L89.06 43.75L85.93 43.75L85.93 47.09C82.89 47.88 80.9 50.81 81.29 53.93C81.69 57.05 84.35 59.39 87.49 59.39C90.64 59.39 93.3 57.05 93.7 53.93C94.09 50.81 92.1 47.88 89.06 47.09ZM87.49 56.25C86.08 56.25 84.84 55.3 84.48 53.94C84.11 52.57 84.71 51.13 85.93 50.43L85.93 53.12L89.06 53.12L89.06 50.43C90.28 51.13 90.88 52.57 90.51 53.94C90.15 55.3 88.91 56.25 87.49 56.25Z" fill="url(#paint_linear_10112_14_0)" fill-opacity="1.000000" fill-rule="nonzero"/>
		<path id="Vector" d="M32.81 43.75L35.93 43.75L35.93 46.87L32.81 46.87L32.81 43.75Z" fill="url(#paint_linear_10112_15_0)" fill-opacity="1.000000" fill-rule="nonzero"/>
	</g>
</svg>
