<svg width="40.000977" height="40.000977" viewBox="0 0 40.001 40.001" fill="none" xmlns="http://www.w3.org/2000/svg" xmlns:xlink="http://www.w3.org/1999/xlink">
	<desc>
			Created with Pixso.
	</desc>
	<defs>
		<linearGradient x1="4.852234" y1="0.000015" x2="37.279308" y2="40.000931" id="paint_linear_128492_44_0" gradientUnits="userSpaceOnUse">
			<stop stop-color="#DF5950"/>
			<stop offset="1.000000" stop-color="#451046"/>
		</linearGradient>
	</defs>
	<path id="Vector" d="M39.9 37.38L38.2 31.39C37.87 30.21 37.93 28.95 38.41 27.82C39.52 25.21 40.09 22.31 39.98 19.27C39.61 8.71 30.92 0.19 20.36 0C9.02 -0.2 -0.2 9.02 0 20.36C0.19 30.92 8.71 39.61 19.27 39.98C21.92 40.08 24.47 39.65 26.82 38.8C28.68 38.12 30.71 38.01 32.62 38.55L37.38 39.9C38.91 40.34 40.33 38.92 39.9 37.38ZM11.06 20C11.06 15.06 15.06 11.06 20 11.06C24.93 11.06 28.93 15.06 28.93 20C28.93 24.93 24.93 28.93 20 28.93C15.06 28.93 11.06 24.93 11.06 20Z" fill="url(#paint_linear_128492_44_0)" fill-opacity="1.000000" fill-rule="nonzero"/>
</svg>
